<?xml version="1.0" encoding="UTF-8"?>
<svg version="1.1" xmlns="http://www.w3.org/2000/svg" width="146" height="148"
viewBox="0 0 146 148">

<path d="M0 0 C10.23 0 20.46 0 31 0 C31 4.95 31 9.9 31 15 C25.72 15 20.44 15 15 15 C15 25.56 15 36.12 15 47 C10.05 47 5.1 47 0 47 C0 31.49 0 15.98 0 0 Z " fill="#000000" transform="translate(34,63)"/>
<path d="M0 0 C10.23 0 20.46 0 31 0 C31 15.18 31 30.36 31 46 C26.05 46 21.1 46 16 46 C16 35.77 16 25.54 16 15 C10.72 15 5.44 15 0 15 C0 10.05 0 5.1 0 0 Z " fill="#000000" transform="translate(81,63)"/>
<path d="M0 0 C5.28 0 10.56 0 16 0 C16 5.28 16 10.56 16 16 C10.72 16 5.44 16 0 16 C0 10.72 0 5.44 0 0 Z " fill="#000000" transform="translate(65,78)"/>
<path d="M0 0 C5.28 0 10.56 0 16 0 C16 5.28 16 10.56 16 16 C10.72 16 5.44 16 0 16 C0 10.72 0 5.44 0 0 Z " fill="#000000" transform="translate(92,40)"/>
<path d="M0 0 C5.28 0 10.56 0 16 0 C16 5.28 16 10.56 16 16 C10.72 16 5.44 16 0 16 C0 10.72 0 5.44 0 0 Z " fill="#000000" transform="translate(38,40)"/>
</svg>
