<?xml version="1.0" encoding="UTF-8"?>
<svg version="1.1" xmlns="http://www.w3.org/2000/svg" width="319" height="81">
<path d="M0 0 C-0.57414023 7.64172564 -2.40674844 14.59940707 -4.5625 21.9375 C-5.21181259 24.17515063 -5.85905904 26.4134022 -6.50390625 28.65234375 C-6.79080322 29.63195068 -7.0777002 30.61155762 -7.37329102 31.62084961 C-8.08490925 33.91228609 -8.08490925 33.91228609 -8 36 C-7.22076172 35.02160156 -7.22076172 35.02160156 -6.42578125 34.0234375 C-4.28863413 31.34509047 -2.14585693 28.67137292 0 26 C0.51949219 25.35160156 1.03898437 24.70320313 1.57421875 24.03515625 C4.5268155 20.40869358 5.70015714 19.14180104 10.4375 18.625 C14 19 14 19 16 21 C18.3586348 28.07590439 14.98258873 36.1197711 12.9375 43 C12.65583984 43.96550781 12.37417969 44.93101563 12.08398438 45.92578125 C11.39475721 48.28550816 10.69999989 50.64345085 10 53 C17.05212792 47.64379903 21.94281162 40.88359923 26.4375 33.3125 C30.86061446 26.20535927 36.91656484 21.02959879 44.95703125 18.4296875 C50.48349833 17.26733305 55.95453582 17.24792863 61 20 C63 22 63 22 63.125 24.5 C63.08375 25.325 63.0425 26.15 63 27 C63 27.66 63 28.32 63 29 C62.54538515 37.78922043 59.75659754 45.70986348 57 54 C63.16778469 47.97117753 68.49781302 41.42750645 73.1875 34.1875 C75.47064486 30.68256411 77.86918855 27.80970258 81 25 C81.763125 24.29875 82.52625 23.5975 83.3125 22.875 C89.33795664 18.67119304 94.74070001 17.61110893 102 18 C102.18175781 17.27554687 102.36351562 16.55109375 102.55078125 15.8046875 C105.96548592 2.67120799 105.96548592 2.67120799 109.75 -0.4375 C113.05387473 -1.26346868 115.71196192 -0.74446145 119 0 C120.582442 3.164884 119.14436128 5.4293913 118.12109375 8.74609375 C117.9136705 9.42527863 117.70624725 10.1044635 117.49253845 10.80422974 C116.81459029 13.0175621 116.12621391 15.22749636 115.4375 17.4375 C114.9735463 18.94440323 114.51016764 20.45148362 114.04736328 21.95874023 C112.70880627 26.30913877 111.35678309 30.65525563 110 35 C109.6479248 36.12825195 109.29584961 37.25650391 108.93310547 38.41894531 C107.30648282 43.61837384 105.66383196 48.81236133 104 54 C110.33840986 47.79550021 116.53670959 41.21970033 120.5625 33.25 C124.06401359 26.51260489 129.98498802 21.80600479 137 19 C142.20079341 17.53310955 147.11739313 17.34832839 152.25 19.125 C155.7313343 21.49863702 156.68738293 22.98922562 158 27 C159.04576033 34.47524974 157.20067387 40.28430037 154 47 C154.9075 46.484375 155.815 45.96875 156.75 45.4375 C157.51570313 45.00244141 157.51570313 45.00244141 158.296875 44.55859375 C162.8860512 40.35886599 164.98068208 33.88866272 167.125 28.1875 C169.73255814 21.26744186 169.73255814 21.26744186 172 19 C174.1640625 18.8046875 174.1640625 18.8046875 176.625 18.875 C177.85089844 18.90207031 177.85089844 18.90207031 179.1015625 18.9296875 C180.04128906 18.96449219 180.04128906 18.96449219 181 19 C182.36342949 23.55105964 181.52105278 26.56921366 180.12890625 31.05078125 C179.9277269 31.70958786 179.72654755 32.36839447 179.51927185 33.04716492 C178.87775841 35.1391038 178.22042253 37.22567075 177.5625 39.3125 C177.12329341 40.73470049 176.6851307 42.15722381 176.24804688 43.58007812 C175.17742737 47.0572055 174.09256711 50.5296977 173 54 C182.82324602 46.3299634 189.56988069 37.32647505 192.4296875 25.15527344 C193.60296551 20.30944131 193.60296551 20.30944131 195.89453125 18.5234375 C199.06731239 17.73465703 201.8297865 18.39034356 205 19 C206.12075514 22.36226542 205.85772854 23.40429574 205.00390625 26.75390625 C204.77509766 27.69169922 204.54628906 28.62949219 204.31054688 29.59570312 C203.81856427 31.54693439 203.32384928 33.49747909 202.82617188 35.44726562 C201.29331011 41.75475564 200.67264924 47.51242251 201 54 C208.25834376 47.36379999 213.39491472 39.04357078 214.25 29.08984375 C214.47421493 23.20131749 214.47421493 23.20131749 212 18 C213 17 213 17 216.1875 16.75 C220.25936457 17.01700751 222.55578939 17.86786962 226 20 C228.32858636 24.65717271 227.64250563 30.06458345 226.046875 34.87109375 C221.29961577 45.14318054 212.43919553 57.91476812 202 63 C198.90944575 63.94853436 196.22049751 64.37419114 193 64 C190.11320601 62.37617838 188.58523625 61.26050885 187.1875 58.25 C186.90198636 54.82383635 186.94270253 51.43784799 187 48 C186.34773437 48.74765625 185.69546875 49.4953125 185.0234375 50.265625 C184.14945313 51.25046875 183.27546875 52.2353125 182.375 53.25 C181.51648438 54.22453125 180.65796875 55.1990625 179.7734375 56.203125 C176.52674897 59.47725034 173.37267785 62.47227656 168.76953125 63.49609375 C163.47205411 63.33748665 163.47205411 63.33748665 161.2734375 61.765625 C159.62093824 59.4744297 159.69100429 58.10690123 159.8125 55.3125 C159.85310547 54.10013672 159.85310547 54.10013672 159.89453125 52.86328125 C159.92933594 52.24839844 159.96414062 51.63351563 160 51 C153.12901581 52.91800872 147.64250087 54.70850878 142.4375 59.67578125 C138.54418062 63.26229014 133.13191004 63.90243517 128 64 C123.85480088 63.30913348 121.70761871 62.68849388 118.6875 59.75 C116.93222653 56.88955435 116.00823772 54.1876162 115 51 C114.34773437 51.68707031 113.69546875 52.37414062 113.0234375 53.08203125 C112.14945313 53.98308594 111.27546875 54.88414063 110.375 55.8125 C109.51648438 56.70582031 108.65796875 57.59914062 107.7734375 58.51953125 C104.03107182 61.86657661 100.92058902 64.07531722 95.8125 63.875 C92.95431323 62.98578634 91.69108543 62.44267895 90 60 C90 59.01 90 58.02 90 57 C89.45472656 57.433125 88.90945312 57.86625 88.34765625 58.3125 C83.56311429 61.84570022 79.99196758 63.91663166 73.9453125 63.453125 C70.90143536 62.74410944 69.70270287 61.58810837 68 59 C66.75 55.75 66.75 55.75 66 53 C65.23816406 53.81404297 65.23816406 53.81404297 64.4609375 54.64453125 C57.04109589 62.35616438 57.04109589 62.35616438 52 64 C48.7040546 63.87074724 46.79088486 63.57998223 44.125 61.625 C43 60 43 60 43 57 C42.45472656 57.433125 41.90945312 57.86625 41.34765625 58.3125 C36.53172757 61.8688781 33.02071012 63.86969105 26.9453125 63.3828125 C24.13428532 62.82963848 22.81648135 62.25243687 21 60 C19.75 56.3125 19.75 56.3125 19 53 C18.46890625 53.55429688 17.9378125 54.10859375 17.390625 54.6796875 C16.68421875 55.40414062 15.9778125 56.12859375 15.25 56.875 C14.55390625 57.59429687 13.8578125 58.31359375 13.140625 59.0546875 C9.91427218 61.98666506 7.8553139 62.92363269 3.5 63.3125 C0 63 0 63 -2.4375 61.9375 C-4.80999685 58.99560391 -4.21090208 56.72963671 -4 53 C-3.46882995 49.98413828 -2.7526623 47.02992199 -2 44.0625 C-1.80921875 43.28326172 -1.6184375 42.50402344 -1.421875 41.70117188 C-0.9550862 39.79900752 -0.47854864 37.89923991 0 36 C-6.71818717 43.263681 -12.28314561 49.84499843 -16.0703125 59.046875 C-17 61 -17 61 -19 63 C-21.71454956 63.32752234 -24.25230759 63.1308425 -27 63 C-28 62 -28 62 -28.31640625 58.36328125 C-28.22946122 51.37041641 -25.9536028 44.8182092 -23.9375 38.1875 C-23.5268457 36.80847362 -23.1166113 35.42932213 -22.70678711 34.05004883 C-20.31096907 26.04581047 -17.79507422 18.08383035 -15.0625 10.1875 C-14.78075928 9.37112061 -14.49901855 8.55474121 -14.20874023 7.71362305 C-12.2576729 2.2576729 -12.2576729 2.2576729 -10 0 C-6.49555486 -1.3767463 -3.62123372 -0.7407069 0 0 Z M48.1875 23.3125 C40.62105859 28.81365963 37.08506683 39.25230585 35 48 C34.73521213 50.77600182 34.78528777 53.20874105 35 56 C36.093125 55.401875 37.18625 54.80375 38.3125 54.1875 C38.92738281 53.85105469 39.54226562 53.51460937 40.17578125 53.16796875 C44.80199961 50.20600025 45.74343542 47.31150192 47.1875 42 C47.70376953 40.14375 47.70376953 40.14375 48.23046875 38.25 C49.11520405 35.07009663 49.11520405 35.07009663 49 32 C48.01 31.67 47.02 31.34 46 31 C47.134375 30.4225 48.26875 29.845 49.4375 29.25 C52.37310297 27.64507365 52.37310297 27.64507365 53.9375 24.75 C53.958125 24.1725 53.97875 23.595 54 23 C50.98686599 21.61354164 50.98686599 21.61354164 48.1875 23.3125 Z M97 22 C90.59274211 25.3554597 87.64504504 31.60538561 85 38 C84.67902344 38.76828125 84.35804688 39.5365625 84.02734375 40.328125 C82.00428693 45.7103971 81.72703644 50.26776524 82 56 C83.0725 55.443125 84.145 54.88625 85.25 54.3125 C85.85328125 53.99925781 86.4565625 53.68601562 87.078125 53.36328125 C92.10044014 49.80070405 93.73021752 45.4952402 95.25 39.6875 C95.75273437 37.80611328 95.75273437 37.80611328 96.265625 35.88671875 C96.50796875 34.93410156 96.7503125 33.98148438 97 33 C94.03 32.505 94.03 32.505 91 32 C91 31.34 91 30.68 91 30 C91.763125 29.87625 92.52625 29.7525 93.3125 29.625 C96.20267136 29.11897208 96.20267136 29.11897208 99 27 C99.72382467 24.94074861 99.72382467 24.94074861 100 23 C99.01 22.67 98.02 22.34 97 22 Z M138.46679688 25.45800781 C136.08338961 27.9636004 134.73064073 30.77108802 133.25 33.875 C132.67765625 35.04804687 132.1053125 36.22109375 131.515625 37.4296875 C129.02727793 43.2914123 127.38387234 48.59227229 128 55 C129.35429841 56.94369738 129.35429841 56.94369738 131 58 C134.45451134 56.13269657 137.24941546 54.60414464 139 51 C138.38617742 48.98315437 137.71408334 46.98356483 137 45 C137.375 41.625 137.375 41.625 138 39 C140.31 38.34 142.62 37.68 145 37 C146.66251802 31.42567486 147.18609365 27.6932495 146 22 C142.40807116 22 141.10724894 23.13904466 138.46679688 25.45800781 Z " fill="#000000" transform="translate(92,13)"/>
<path d="M0 0 C0.78882568 -0.01015137 1.57765137 -0.02030273 2.39038086 -0.03076172 C9.05684172 0.06984806 13.831935 1.45796239 18.875 6.0625 C21.52011172 10.2635598 22.54628606 13.47890348 22 18.4375 C19.91955082 24.21307533 16.15724435 27.49415924 10.96484375 30.52734375 C4.26336421 33.63160763 -2.20865807 32.65508104 -9 30.4375 C-9 29.7775 -9 29.1175 -9 28.4375 C-7.171875 27.10546875 -7.171875 27.10546875 -4.75 25.625 C0.31241233 22.32965613 3.32150618 19.85463425 5 13.875 C5.26143141 10.49073694 5.26143141 10.49073694 3.75 8 C-0.73634798 5.45093865 -4.97564182 5.66656673 -10 6.4375 C-16.89591375 8.81405784 -21.9590239 12.4289406 -26.375 18.25 C-27.41532472 21.89113652 -27.26637566 24.92764666 -26 28.4375 C-21.71526652 34.5515323 -15.12961887 38.57858947 -9.08984375 42.78759766 C-2.70457519 47.26663501 3.31072071 51.84424081 6 59.4375 C6.56176235 64.68061526 5.97626422 68.06611193 3 72.4375 C-5.56415352 80.85789075 -15.45405936 81.92302578 -26.94921875 81.86157227 C-36.37600648 81.58425888 -44.30197562 79.3072686 -51 72.4375 C-53.53613694 68.97913144 -53.44903371 65.62848127 -53 61.4375 C-50.78136971 58.53032927 -49.48055071 57.59768357 -46 56.4375 C-43.93854893 56.368509 -41.87498599 56.35282273 -39.8125 56.375 C-38.18248047 56.38853516 -38.18248047 56.38853516 -36.51953125 56.40234375 C-35.68808594 56.41394531 -34.85664062 56.42554688 -34 56.4375 C-34.680625 57.448125 -35.36125 58.45875 -36.0625 59.5 C-37.73643126 62.453293 -38.00207283 63.55979669 -38.0625 67.125 C-36.80059256 71.05918201 -35.44357181 72.25377154 -32 74.4375 C-27.59225517 76.64137242 -21.79723718 75.87996362 -17 75.4375 C-14.08820324 74.27700129 -12.22089441 72.65839441 -10 70.4375 C-9.40601131 64.95163506 -9.40601131 64.95163506 -11.4921875 60.05078125 C-14.80158308 56.60220548 -18.49416025 54.05216063 -22.4375 51.375 C-39.90710545 39.36370904 -39.90710545 39.36370904 -42.70703125 30.09765625 C-43.75103912 23.38617709 -41.69437988 18.9533974 -37.9375 13.375 C-28.37326985 2.79509939 -13.61188708 0.12428532 0 0 Z " fill="#000000" transform="translate(53,-0.4375)"/>
</svg>
